<svg width="49" height="32" viewBox="0 0 49 32" fill="none" xmlns="http://www.w3.org/2000/svg">
<path d="M19.7361 14.3384C22.4413 12.9914 23.8535 10.9532 23.8535 7.78067C23.8535 1.52423 19.3788 0 14.2151 0H0V31.4063H14.6149C20.0934 31.4063 25.2401 28.668 25.2401 22.2875C25.2401 18.3439 23.4451 15.4284 19.7361 14.3384ZM6.62691 5.36139H12.8455C15.2359 5.36139 17.3882 6.06148 17.3882 8.95043C17.3882 11.6178 15.7123 12.6901 13.3474 12.6901H6.62691V5.36139ZM13.7132 26.0714H6.62691V17.4223H13.8493C16.7672 17.4223 18.6132 18.6896 18.6132 21.9064C18.6132 25.0789 16.4099 26.0714 13.7132 26.0714ZM44.2106 4.74107H31.9861V1.6483H44.2106V4.74107ZM49 20.3644C49 13.6383 45.2229 8.0288 38.3748 8.0288C31.7224 8.0288 27.2052 13.2395 27.2052 20.0631C27.2052 27.1437 31.4842 32 38.3748 32C43.5896 32 46.9668 29.5541 48.5917 24.3523H43.3004C42.7304 26.293 40.3825 27.321 38.562 27.321C35.0486 27.321 33.2026 25.1764 33.2026 21.5342H48.949C48.9745 21.162 49 20.7632 49 20.3644ZM33.2111 17.5996C33.4068 14.6131 35.3123 12.7433 38.1877 12.7433C41.1991 12.7433 42.7134 14.5865 42.9686 17.5996H33.2111Z" fill="#565656"/>
</svg>
