<svg width="710" height="766" viewBox="0 0 710 766" fill="none" xmlns="http://www.w3.org/2000/svg">
<path d="M755.504 469.894C745.933 496.805 733.353 521.987 717.763 545.44C702.174 568.893 684.198 588.861 663.838 605.345C643.477 621.828 621.355 633.073 597.472 639.077C574.382 644.705 549.674 642.838 523.347 633.475C498.191 624.529 480.212 610.226 469.409 590.568C458.607 570.91 454.487 550.992 457.05 530.815L451.785 528.942C433.595 544.88 411.87 555.936 386.608 562.11C361.932 568.491 334.676 566.377 304.839 555.766C258.037 539.121 227.071 511.303 211.94 472.312C197.603 432.944 199.277 388.397 216.962 338.669C230.694 300.058 250.763 268.642 277.17 244.423C303.576 220.204 334.13 204.709 368.83 197.938C403.53 191.167 440.478 194.752 479.675 208.692C506.001 218.054 531.495 229.757 556.157 243.8C581.027 257.258 599.735 269.512 612.28 280.564L540.151 455.584C536.237 464.737 533.344 471.945 531.471 477.211C529.807 481.891 528.662 485.109 528.038 486.864C518.051 514.945 516.074 535.33 522.105 548.02C528.722 560.917 538.173 569.55 550.459 573.92C567.424 579.953 583.962 577.926 600.071 567.839C616.973 557.374 632.614 541.189 646.995 519.284C661.96 497.586 674.54 472.404 684.735 443.738C703.668 390.5 708.762 341.896 700.015 297.927C692.062 253.58 672.797 215.096 642.221 182.474C612.231 150.06 573.541 125.427 526.154 108.575C477.597 91.3059 431.892 83.619 389.041 85.5141C346.19 87.4092 306.9 97.8201 271.172 116.747C236.029 135.882 204.968 162.07 177.989 195.312C151.594 228.761 130.283 268.302 114.055 313.934C94.2891 369.512 87.382 420.436 93.3331 466.707C99.8692 513.186 118.802 553.529 150.132 587.737C181.67 621.36 225.52 648.158 281.683 668.131C316.785 680.615 352.465 688.691 388.725 692.36C425.361 696.822 458.903 698.865 489.352 698.49L465.633 765.184C435.562 766.352 403.19 764.724 368.516 760.301C333.843 755.879 297.493 746.905 259.466 733.382C189.263 708.415 133.875 674.218 93.3018 630.792C52.7289 587.366 27.8097 536.985 18.5441 479.651C9.48662 421.731 17.0252 358.839 41.1598 290.976C60.5092 236.568 86.885 189.273 120.287 149.089C153.69 108.905 192.513 77.5695 236.757 55.081C281.794 32.2155 330.457 19.5365 382.747 17.0441C435.83 14.1747 491.331 23.0388 549.249 43.6365C595.466 60.073 635.28 82.4701 668.69 110.828C702.308 138.6 728.269 171.228 746.572 208.711C765.667 245.817 776.247 286.485 778.311 330.714C780.375 374.943 772.773 421.337 755.504 469.894ZM293.561 367.888C280.87 403.575 278.924 432.209 287.724 453.791C296.732 474.789 313.23 489.552 337.216 498.083C369.392 509.526 396.37 505.94 418.148 487.324C440.133 468.123 458.954 440.218 474.61 403.608L517.326 300.176C511.138 295.339 502.694 290.359 491.994 285.236C482.088 279.736 471.285 274.905 459.584 270.744C431.503 260.757 406.294 259.371 383.958 266.585C362.207 274.007 343.783 286.896 328.688 305.252C313.593 323.608 301.884 344.487 293.561 367.888Z" fill="#161616"/>
</svg>
