<svg width="1920" height="1090" viewBox="0 0 1920 1090" fill="none" xmlns="http://www.w3.org/2000/svg">
<g clip-path="url(#clip0_263_27)">
<path d="M80.5392 993.142L214.941 941.378L229.731 979.778L95.3289 1031.54C74.1186 1039.71 50.2961 1029.11 42.1386 1007.93L-17.0201 854.329L-36.2204 861.724C-46.8225 865.807 -58.7252 860.538 -62.8155 849.918C-66.8988 839.316 -61.6122 827.406 -51.01 823.323L-31.8097 815.928L-39.2046 796.728C-43.2879 786.126 -38.0013 774.216 -27.3991 770.133C-16.779 766.043 -4.88733 771.336 -0.803992 781.938L80.5392 993.142ZM174.983 780.381L40.5808 832.144L25.7911 793.744L160.193 741.98C181.374 733.822 205.214 744.381 213.383 765.591L272.542 919.193L291.742 911.798C302.363 907.708 314.247 912.984 318.338 923.604C322.428 934.224 317.152 946.109 306.532 950.199L287.332 957.594L294.727 976.794C298.817 987.414 293.541 999.299 282.921 1003.39C272.301 1007.48 260.416 1002.2 256.326 991.584L174.983 780.381Z" fill="#313131"/>
<path d="M1777.62 61.7889L1815.31 315.664C1816.72 325.307 1810.06 334.257 1800.43 335.724C1790.77 337.142 1781.82 330.498 1780.36 320.878L1742.68 67.0129C1741.28 57.3727 1747.93 48.4029 1757.57 46.9634C1767.21 45.5234 1776.17 52.1735 1777.62 61.7889ZM1848.11 78.5583L1929.85 109.202C1938.98 112.622 1943.57 122.754 1940.14 131.872L1909.38 213.575C1905.95 222.694 1895.8 227.298 1886.68 223.878C1877.56 220.458 1872.96 210.327 1876.39 201.208L1900.89 136.014L1835.69 111.531C1826.57 108.111 1821.97 97.9799 1825.4 88.8613C1828.84 79.7427 1838.98 75.1383 1848.11 78.5583ZM1681.6 181.464L1657.07 246.669L1722.3 271.14C1731.42 274.56 1736.02 284.692 1732.59 293.81C1729.15 302.929 1719.01 307.533 1709.88 304.113L1628.12 273.476C1619 270.055 1614.4 259.923 1617.84 250.806L1648.61 169.097C1652.04 159.978 1662.19 155.374 1671.31 158.794C1680.43 162.214 1685.03 172.345 1681.6 181.464Z" fill="#313131"/>
</g>
<defs>
<clipPath id="clip0_263_27">
<rect width="1920" height="1090" fill="white"/>
</clipPath>
</defs>
</svg>
