<svg width="1440" height="1096" viewBox="0 0 1440 1096" fill="none" xmlns="http://www.w3.org/2000/svg">
<g clip-path="url(#clip0_299_2)">
<path d="M80.5392 993.142L214.941 941.378L229.731 979.778L95.3289 1031.54C74.1186 1039.71 50.2961 1029.11 42.1386 1007.93L-17.0201 854.329L-36.2204 861.724C-46.8225 865.807 -58.7252 860.538 -62.8155 849.918C-66.8988 839.316 -61.6122 827.406 -51.01 823.323L-31.8097 815.928L-39.2046 796.728C-43.2879 786.126 -38.0013 774.216 -27.3991 770.133C-16.779 766.043 -4.88733 771.336 -0.803992 781.938L80.5392 993.142ZM174.983 780.381L40.5808 832.144L25.7911 793.744L160.193 741.98C181.374 733.822 205.214 744.381 213.383 765.591L272.542 919.193L291.742 911.798C302.363 907.708 314.247 912.984 318.338 923.604C322.428 934.224 317.152 946.109 306.532 950.199L287.332 957.594L294.727 976.794C298.817 987.414 293.541 999.299 282.921 1003.39C272.301 1007.48 260.416 1002.2 256.326 991.584L174.983 780.381Z" fill="#313131"/>
<path d="M1293.62 71.7889L1331.31 325.664C1332.72 335.307 1326.06 344.257 1316.43 345.724C1306.77 347.142 1297.82 340.498 1296.36 330.878L1258.68 77.0129C1257.28 67.3727 1263.93 58.4029 1273.57 56.9634C1283.21 55.5234 1292.17 62.1735 1293.62 71.7889ZM1364.11 88.5583L1445.85 119.202C1454.98 122.622 1459.57 132.754 1456.14 141.872L1425.38 223.575C1421.95 232.694 1411.8 237.298 1402.68 233.878C1393.56 230.458 1388.96 220.327 1392.39 211.208L1416.89 146.014L1351.69 121.531C1342.57 118.111 1337.97 107.98 1341.4 98.8613C1344.84 89.7427 1354.98 85.1383 1364.11 88.5583ZM1197.6 191.464L1173.07 256.669L1238.3 281.14C1247.42 284.56 1252.02 294.692 1248.59 303.81C1245.15 312.929 1235.01 317.533 1225.88 314.113L1144.12 283.476C1135 280.055 1130.4 269.923 1133.84 260.806L1164.61 179.097C1168.04 169.978 1178.19 165.374 1187.31 168.794C1196.43 172.214 1201.03 182.345 1197.6 191.464Z" fill="#313131"/>
</g>
<defs>
<clipPath id="clip0_299_2">
<rect width="1440" height="1096" fill="white"/>
</clipPath>
</defs>
</svg>
