<svg width="1920" height="1100" viewBox="0 0 1920 1100" fill="none" xmlns="http://www.w3.org/2000/svg">
<g clip-path="url(#clip0_215_14)">
<path d="M80.5392 1003.14L214.941 951.377L229.731 989.778L95.3289 1041.54C74.1186 1049.71 50.2961 1039.11 42.1386 1017.93L-17.0201 864.329L-36.2204 871.723C-46.8225 875.807 -58.7252 870.538 -62.8155 859.918C-66.8988 849.316 -61.6122 837.406 -51.01 833.323L-31.8097 825.928L-39.2046 806.728C-43.2879 796.126 -38.0013 784.216 -27.3991 780.133C-16.779 776.042 -4.88733 781.336 -0.803992 791.938L80.5392 1003.14ZM174.983 790.38L40.5808 842.144L25.7911 803.744L160.193 751.98C181.374 743.822 205.214 754.38 213.383 775.591L272.542 929.193L291.742 921.798C302.363 917.708 314.247 922.983 318.338 933.604C322.428 944.224 317.152 956.108 306.532 960.199L287.332 967.594L294.727 986.794C298.817 997.414 293.541 1009.3 282.921 1013.39C272.301 1017.48 260.416 1012.2 256.326 1001.58L174.983 790.38Z" fill="#181818"/>
<path d="M1777.62 71.7887L1815.31 325.663C1816.72 335.307 1810.06 344.256 1800.43 345.724C1790.77 347.141 1781.82 340.498 1780.36 330.877L1742.68 77.0126C1741.28 67.3724 1747.93 58.4027 1757.57 56.9632C1767.21 55.5232 1776.17 62.1733 1777.62 71.7887ZM1848.11 88.5581L1929.85 119.202C1938.98 122.622 1943.57 132.753 1940.14 141.872L1909.38 223.575C1905.95 232.693 1895.8 237.298 1886.68 233.878C1877.56 230.458 1872.96 220.326 1876.39 211.208L1900.89 146.014L1835.69 121.531C1826.57 118.111 1821.97 107.98 1825.4 98.861C1828.84 89.7424 1838.98 85.138 1848.11 88.5581ZM1681.6 191.463L1657.07 256.668L1722.3 281.14C1731.42 284.56 1736.02 294.691 1732.59 303.81C1729.15 312.929 1719.01 317.533 1709.88 314.113L1628.12 283.475C1619 280.054 1614.4 269.923 1617.84 260.806L1648.61 179.096C1652.04 169.978 1662.19 165.373 1671.31 168.793C1680.43 172.214 1685.03 182.345 1681.6 191.463Z" fill="#181818"/>
</g>
<defs>
<clipPath id="clip0_215_14">
<rect width="1920" height="1100" fill="white"/>
</clipPath>
</defs>
</svg>
