<svg width="28" height="29" viewBox="0 0 28 29" fill="none" xmlns="http://www.w3.org/2000/svg">
<path d="M16.1118 5.98687L23.2857 3.61184C23.8784 3.41257 24.5396 3.56917 24.9852 4.01484C25.4331 4.46516 25.5838 5.12332 25.3853 5.72418L22.9334 12.9113L27.5056 19.1502C27.8792 19.6613 27.9368 20.3429 27.6382 20.9068C27.3442 21.4683 26.7564 21.8165 26.1259 21.8018L18.5567 21.6204L14.1965 27.8047C13.828 28.3223 13.1981 28.5868 12.572 28.4883C11.9459 28.3898 11.4281 27.9396 11.245 27.3327L8.95928 19.9432L1.72552 17.63C1.12424 17.4316 0.687323 16.9175 0.591662 16.2899C0.497876 15.6672 0.764724 15.0436 1.28216 14.6842L7.45872 10.3412L7.3563 2.68428C7.34494 2.0483 7.70186 1.46133 8.26881 1.17603C8.84042 0.888396 9.52447 0.951533 10.0284 1.33963L16.1118 5.98687Z" fill="#272727"/>
</svg>
